<svg xmlns="http://www.w3.org/2000/svg" viewBox="0 0 512 512" role="img" aria-label="Split4me logo">
  <defs>
    <linearGradient id="edge" x1="0" x2="1" y1="0" y2="0">
      <stop offset="0%" stop-color="#ffffff" stop-opacity="0" />
      <stop offset="50%" stop-color="#ffffff" stop-opacity="0.4" />
      <stop offset="100%" stop-color="#ffffff" stop-opacity="0" />
    </linearGradient>
  </defs>
  <circle cx="256" cy="256" r="248" fill="#0b0b0b" stroke="#ffffff" stroke-width="12" />
  <path d="M256 8a248 248 0 0 1 0 496z" fill="#e53935" stroke="#ffffff" stroke-width="12" stroke-linejoin="round" />
  <path d="M256 30l20 120-44 120 52 102-36 150" fill="none" stroke="#ffffff" stroke-width="26" stroke-linecap="round" stroke-linejoin="round" />
  <path d="M256 30l20 120-44 120 52 102-36 150" fill="none" stroke="#1c1c1c" stroke-width="10" stroke-linecap="round" stroke-linejoin="round" opacity="0.35" />
  <path d="M338 120c-32-32-76-50-128-50-84 0-140 44-140 110 0 68 66 92 136 108 46 10 82 18 82 40 0 26-30 42-76 42-48 0-86-18-106-52l-70 40c26 52 90 92 178 92 92 0 156-44 156-112 0-70-60-96-132-114-52-12-88-20-88-46 0-24 28-40 70-40 34 0 64 12 82 34z" fill="#ffffff" />
</svg>
